<svg width="100" height="100" viewBox="0 0 100 100" fill="none" xmlns="http://www.w3.org/2000/svg">
<path d="M27.7207 55.2083C29.1708 55.2083 30.3993 54.7008 31.4063 53.6856C32.4132 52.6706 32.9167 51.4379 32.9167 49.9877C32.9167 48.5376 32.4091 47.309 31.394 46.3021C30.3789 45.2951 29.1463 44.7917 27.6961 44.7917C26.2459 44.7917 25.0174 45.2992 24.0105 46.3144C23.0035 47.3294 22.5 48.5621 22.5 50.0123C22.5 51.4624 23.0076 52.691 24.0227 53.6979C25.0378 54.7049 26.2705 55.2083 27.7207 55.2083ZM50.0123 55.2083C51.4625 55.2083 52.691 54.7008 53.698 53.6856C54.7049 52.6706 55.2084 51.4379 55.2084 49.9877C55.2084 48.5376 54.7008 47.309 53.6857 46.3021C52.6706 45.2951 51.438 44.7917 49.9878 44.7917C48.5376 44.7917 47.3091 45.2992 46.3021 46.3144C45.2952 47.3294 44.7917 48.5621 44.7917 50.0123C44.7917 51.4624 45.2993 52.691 46.3144 53.6979C47.3295 54.7049 48.5621 55.2083 50.0123 55.2083ZM72.1998 55.2083C73.65 55.2083 74.8785 54.7008 75.8855 53.6856C76.8924 52.6706 77.3959 51.4379 77.3959 49.9877C77.3959 48.5376 76.8883 47.309 75.8732 46.3021C74.8581 45.2951 73.6255 44.7917 72.1753 44.7917C70.7251 44.7917 69.4966 45.2992 68.4896 46.3144C67.4827 47.3294 66.9792 48.5621 66.9792 50.0123C66.9792 51.4624 67.4868 52.691 68.5019 53.6979C69.517 54.7049 70.7496 55.2083 72.1998 55.2083ZM50.0278 91.6667C44.2823 91.6667 38.883 90.5729 33.8298 88.3854C28.7766 86.1979 24.3577 83.2118 20.573 79.4271C16.7882 75.6424 13.8021 71.2208 11.6146 66.1624C9.42712 61.1041 8.33337 55.6992 8.33337 49.9479C8.33337 44.1966 9.42712 38.7918 11.6146 33.7334C13.8021 28.675 16.7882 24.2708 20.573 20.5208C24.3577 16.7708 28.7792 13.8021 33.8376 11.6146C38.896 9.42708 44.3008 8.33333 50.0521 8.33333C55.8034 8.33333 61.2083 9.42708 66.2666 11.6146C71.325 13.8021 75.7292 16.7708 79.4792 20.5208C83.2292 24.2708 86.198 28.6806 88.3855 33.75C90.573 38.8194 91.6667 44.2269 91.6667 49.9723C91.6667 55.7177 90.573 61.117 88.3855 66.1702C86.198 71.2234 83.2292 75.636 79.4792 79.4079C75.7292 83.1799 71.3195 86.166 66.25 88.3662C61.1806 90.5665 55.7732 91.6667 50.0278 91.6667ZM50.0521 85.4167C59.8785 85.4167 68.2292 81.9618 75.1042 75.0521C81.9792 68.1424 85.4167 59.7743 85.4167 49.9479C85.4167 40.1215 81.9857 31.7708 75.1238 24.8958C68.2618 18.0208 59.8872 14.5833 50 14.5833C40.2084 14.5833 31.8577 18.0143 24.948 24.8762C18.0382 31.7383 14.5834 40.1128 14.5834 50C14.5834 59.7917 18.0382 68.1424 24.948 75.0521C31.8577 81.9618 40.2257 85.4167 50.0521 85.4167Z" fill="#595959"/>
</svg>
