<svg width="120" height="120" viewBox="0 0 120 120" fill="none" xmlns="http://www.w3.org/2000/svg">
<path d="M85 78.75C80.8333 78.75 77.2917 77.2917 74.375 74.375C71.4583 71.4583 70 67.9167 70 63.75C70 59.5833 71.4583 56.0417 74.375 53.125C77.2917 50.2083 80.8333 48.75 85 48.75C89.1667 48.75 92.7083 50.2083 95.625 53.125C98.5417 56.0417 100 59.5833 100 63.75C100 67.9167 98.5417 71.4583 95.625 74.375C92.7083 77.2917 89.1667 78.75 85 78.75ZM85 71.25C87.125 71.25 88.9062 70.5312 90.3438 69.0938C91.7812 67.6562 92.5 65.875 92.5 63.75C92.5 61.625 91.7812 59.8438 90.3438 58.4062C88.9062 56.9688 87.125 56.25 85 56.25C82.875 56.25 81.0938 56.9688 79.6562 58.4062C78.2188 59.8438 77.5 61.625 77.5 63.75C77.5 65.875 78.2188 67.6562 79.6562 69.0938C81.0938 70.5312 82.875 71.25 85 71.25ZM55 113.75V99.25C55 97.5 55.4167 95.8542 56.25 94.3125C57.0833 92.7708 58.25 91.5417 59.75 90.625C62.0833 89.2083 64.5 87.9792 67 86.9375C69.5 85.8958 72.0833 85.0417 74.75 84.375L85 97.625L95.25 84.375C97.9167 85.0417 100.479 85.8958 102.938 86.9375C105.396 87.9792 107.792 89.2083 110.125 90.625C111.625 91.5417 112.812 92.7708 113.688 94.3125C114.562 95.8542 115 97.5 115 99.25V113.75H55ZM62.5 106.25H82.125L71.875 93C70.2083 93.6667 68.5833 94.3958 67 95.1875C65.4167 95.9792 63.9167 96.8333 62.5 97.75V106.25ZM87.875 106.25H107.5V97.75C106.083 96.8333 104.604 95.9792 103.062 95.1875C101.521 94.3958 99.9167 93.6667 98.25 93L87.875 106.25ZM22.5 105C20.4375 105 18.6719 104.266 17.2031 102.797C15.7344 101.328 15 99.5625 15 97.5V22.5C15 20.4375 15.7344 18.6719 17.2031 17.2031C18.6719 15.7344 20.4375 15 22.5 15H97.5C99.5625 15 101.328 15.7344 102.797 17.2031C104.266 18.6719 105 20.4375 105 22.5V53.375C104.083 51.7083 103 50.1667 101.75 48.75C100.5 47.3333 99.0833 46.0833 97.5 45V22.5H22.5V97.5H47.5V105H22.5ZM35 42.5H77.625C78.7917 42.0833 79.9933 41.7708 81.23 41.5625C82.4668 41.3542 83.7234 41.25 85 41.25V35H35V42.5ZM35 63.75H62.5C62.5 62.5 62.6042 61.2292 62.8125 59.9375C63.0208 58.6458 63.3333 57.4167 63.75 56.25H35V63.75ZM35 85H54.75C56.1667 83.9167 57.6667 83.0208 59.25 82.3125C60.8333 81.6042 62.4583 80.9167 64.125 80.25V77.5H35V85ZM22.5 97.5V22.5V45V41.25V97.5Z" fill="url(#paint0_linear_79_8)"/>
<defs>
<linearGradient id="paint0_linear_79_8" x1="65" y1="15" x2="65" y2="113.75" gradientUnits="userSpaceOnUse">
<stop stop-color="#1D81C4"/>
<stop offset="1" stop-color="#2594BD"/>
<stop offset="1" stop-color="#2594BD"/>
</linearGradient>
</defs>
</svg>
