<svg width="120" height="120" viewBox="0 0 120 120" fill="none" xmlns="http://www.w3.org/2000/svg">
<path d="M40 93.75H80V86.25H40V93.75ZM40 78.75H80V71.25H40V78.75ZM60 59.5C65.3333 54.6667 69.7917 50.5833 73.375 47.25C76.9583 43.9167 78.75 40.1667 78.75 36C78.75 33.3409 77.7898 31.0511 75.8694 29.1306C73.9489 27.2102 71.6591 26.25 69 26.25C66.9167 26.25 65.2083 26.6458 63.875 27.4375C62.5417 28.2292 61.25 29.4167 60 31C58.75 29.4167 57.4583 28.2292 56.125 27.4375C54.7917 26.6458 53.0833 26.25 51 26.25C48.3409 26.25 46.0511 27.2102 44.1306 29.1306C42.2102 31.0511 41.25 33.3409 41.25 36C41.25 40.1667 42.9792 43.8542 46.4375 47.0625C49.8958 50.2708 54.4167 54.4167 60 59.5ZM92.5 110H27.5C25.5 110 23.75 109.25 22.25 107.75C20.75 106.25 20 104.5 20 102.5V17.5C20 15.5 20.75 13.75 22.25 12.25C23.75 10.75 25.5 10 27.5 10H92.5C94.5 10 96.25 10.75 97.75 12.25C99.25 13.75 100 15.5 100 17.5V102.5C100 104.5 99.25 106.25 97.75 107.75C96.25 109.25 94.5 110 92.5 110ZM27.5 102.5H92.5V17.5H27.5V102.5Z" fill="url(#paint0_linear_79_6)"/>
<defs>
<linearGradient id="paint0_linear_79_6" x1="60" y1="10" x2="60" y2="110" gradientUnits="userSpaceOnUse">
<stop stop-color="#1D81C4"/>
<stop offset="1" stop-color="#2594BD"/>
</linearGradient>
</defs>
</svg>
