<svg width="120" height="120" viewBox="0 0 120 120" fill="none" xmlns="http://www.w3.org/2000/svg">
<path d="M86.75 105L93.375 98.25L81.75 86.625L75 93.25C73.3333 94.9167 72.5208 96.875 72.5625 99.125C72.6042 101.375 73.4167 103.333 75 105C76.6667 106.583 78.625 107.396 80.875 107.438C83.125 107.479 85.0833 106.667 86.75 105ZM98.5 93.125L105.25 86.5C106.917 84.8333 107.729 82.875 107.688 80.625C107.646 78.375 106.792 76.4167 105.125 74.75C103.458 73.0833 101.53 72.25 99.34 72.25C97.15 72.25 95.2033 73.0833 93.5 74.75L86.875 81.5L98.5 93.125ZM92 110.25C88.9167 113.333 85.2083 114.875 80.875 114.875C76.5417 114.875 72.8333 113.333 69.75 110.25C66.6667 107.167 65.125 103.458 65.125 99.125C65.125 94.7917 66.6667 91.0833 69.75 88L88.25 69.5C91.3333 66.4167 95.0417 64.875 99.375 64.875C103.708 64.875 107.417 66.4167 110.5 69.5C113.583 72.5833 115.125 76.2917 115.125 80.625C115.125 84.9583 113.583 88.6667 110.5 91.75L92 110.25ZM22.5 105C20.4375 105 18.6719 104.266 17.2031 102.797C15.7344 101.328 15 99.5625 15 97.5V22.5C15 20.4375 15.7344 18.6719 17.2031 17.2031C18.6719 15.7344 20.4375 15 22.5 15H48.125C48.5417 12.0833 49.875 9.6875 52.125 7.8125C54.375 5.9375 57 5 60 5C63 5 65.625 5.9375 67.875 7.8125C70.125 9.6875 71.4583 12.0833 71.875 15H97.5C99.5625 15 101.328 15.7344 102.797 17.2031C104.266 18.6719 105 20.4375 105 22.5V58C103.75 57.6667 102.5 57.4583 101.25 57.375C100 57.2917 98.75 57.3333 97.5 57.5V22.5H22.5V97.5H57.625C57.5417 98.75 57.5625 100 57.6875 101.25C57.8125 102.5 58.0417 103.75 58.375 105H22.5ZM60 20.375C61.1667 20.375 62.1875 19.9375 63.0625 19.0625C63.9375 18.1875 64.375 17.1667 64.375 16C64.375 14.8333 63.9375 13.8125 63.0625 12.9375C62.1875 12.0625 61.1667 11.625 60 11.625C58.8333 11.625 57.8125 12.0625 56.9375 12.9375C56.0625 13.8125 55.625 14.8333 55.625 16C55.625 17.1667 56.0625 18.1875 56.9375 19.0625C57.8125 19.9375 58.8333 20.375 60 20.375ZM35 42.5V35H85V42.5H35ZM35 63.75V56.25H85V62.375C84.75 62.5417 84.4792 62.75 84.1875 63C83.8958 63.25 83.625 63.5 83.375 63.75H35ZM35 85V77.5H69.625L64.375 82.75C63.9583 83.1667 63.6042 83.5417 63.3125 83.875C63.0208 84.2083 62.7083 84.5833 62.375 85H35Z" fill="url(#paint0_linear_79_2)"/>
<defs>
<linearGradient id="paint0_linear_79_2" x1="65.0625" y1="5" x2="65.0625" y2="114.875" gradientUnits="userSpaceOnUse">
<stop stop-color="#1D81C4"/>
<stop offset="1" stop-color="#2594BD"/>
</linearGradient>
</defs>
</svg>
